<?xml version="1.0" standalone="no"?>
<!DOCTYPE svg PUBLIC "-//W3C//DTD SVG 20010904//EN"
 "http://www.w3.org/TR/2001/REC-SVG-20010904/DTD/svg10.dtd">
<svg version="1.0" xmlns="http://www.w3.org/2000/svg"
 width="412.000000pt" height="412.000000pt" viewBox="0 0 412.000000 412.000000"
 preserveAspectRatio="xMidYMid meet">
<metadata>
Created by potrace 1.14, written by Peter Selinger 2001-2017
</metadata>
<g transform="translate(0.000000,412.000000) scale(0.100000,-0.100000)"
fill="#000000" stroke="none">
<path d="M0 2060 l0 -2060 2060 0 2060 0 0 2060 0 2060 -2060 0 -2060 0 0
-2060z m284 1700 c8 -17 25 -47 37 -67 13 -20 18 -33 12 -30 -12 7 -73 109
-73 121 0 14 9 4 24 -24z m195 -81 c25 14 78 14 86 1 3 -5 16 -11 28 -11 17
-1 18 -2 5 -6 -10 -2 -18 -9 -18 -14 0 -17 40 -49 60 -49 12 0 33 -9 48 -19
17 -12 60 -24 117 -31 50 -7 101 -19 115 -27 14 -8 57 -49 95 -89 l71 -74 64
-4 c36 -2 85 -4 110 -5 40 -1 49 -6 100 -58 68 -71 98 -127 79 -150 -7 -8 -54
-44 -104 -80 -166 -118 -280 -227 -321 -306 -14 -27 -23 -51 -21 -54 5 -5 212
126 337 213 47 33 92 64 100 69 18 11 24 20 -94 -141 -74 -101 -241 -373 -233
-380 2 -2 26 23 55 56 29 32 61 61 71 65 11 3 36 34 55 69 33 59 39 64 93 83
50 18 243 40 243 28 0 -2 -82 -46 -182 -97 -175 -89 -181 -92 -148 -99 107
-20 95 -24 137 41 43 67 25 59 330 166 159 55 162 57 148 78 -22 30 -19 36 19
36 19 0 38 5 41 10 3 6 -3 10 -15 10 -11 0 -28 4 -38 9 -63 35 -142 63 -169
62 -24 -1 -31 2 -27 12 4 10 -3 13 -26 9 -19 -3 -30 0 -30 8 0 15 87 6 159
-16 105 -32 284 -54 447 -54 151 0 166 2 250 29 146 49 297 90 306 85 4 -3 36
-8 71 -12 l62 -7 -120 -29 c-65 -16 -144 -37 -174 -47 -30 -11 -56 -17 -59
-15 -2 3 9 16 24 30 27 24 21 22 -62 -13 -91 -38 -132 -47 -469 -101 -71 -12
-138 -24 -148 -28 -14 -6 9 -33 121 -145 l138 -138 58 81 c31 44 59 80 62 80
3 0 117 -108 252 -240 168 -162 249 -235 254 -226 4 7 19 60 33 119 26 107 43
162 44 140 1 -7 6 -13 11 -13 6 0 10 35 10 84 0 72 3 85 18 90 32 9 264 56
288 58 14 2 23 7 20 13 -2 5 -19 48 -39 95 -58 142 -59 137 10 99 32 -18 85
-49 118 -69 33 -20 75 -45 94 -55 33 -17 34 -17 28 4 -3 12 -1 21 3 21 20 0
118 -24 145 -35 17 -7 53 -21 80 -31 28 -9 51 -18 53 -19 6 -4 -23 -95 -30
-95 -4 0 -3 12 2 26 16 41 13 47 -20 40 -17 -3 -29 -2 -26 2 3 5 -14 9 -37 11
l-42 2 23 -23 c19 -20 24 -21 33 -8 8 12 9 11 4 -6 -3 -12 6 -45 20 -79 l26
-58 -53 -151 -53 -151 -3 232 -2 233 -41 26 c-23 14 -43 24 -45 21 -7 -6 -144
-350 -144 -359 0 -5 16 -34 35 -64 43 -67 175 -295 175 -301 0 -3 -6 -1 -12 4
-7 6 -92 36 -188 68 -149 49 -184 65 -237 105 l-62 47 -79 -2 c-76 -3 -150
-27 -167 -55 -9 -15 1 -12 45 10 22 11 40 18 40 16 0 -3 -64 -38 -142 -79
-121 -63 -165 -80 -283 -110 -212 -55 -375 -68 -570 -49 -67 7 -74 10 -170 81
-55 41 -101 75 -103 76 -1 1 -18 69 -38 151 -20 82 -39 157 -43 167 -5 15 -26
-1 -121 -88 -63 -58 -118 -105 -122 -105 -13 0 -9 -22 7 -40 12 -14 13 -23 5
-45 -10 -27 -10 -27 19 -22 16 3 31 4 33 1 3 -2 2 -24 -2 -49 -8 -50 1 -55 54
-35 14 5 40 7 57 3 l32 -6 -34 -28 c-24 -20 -45 -29 -71 -29 -31 0 -38 -4 -38
-19 0 -25 -15 -30 -74 -23 -68 7 -53 -11 31 -39 62 -20 66 -23 48 -36 -29 -21
-177 -103 -186 -103 -4 0 -14 19 -23 43 -10 23 -38 88 -64 144 -43 92 -49 101
-70 96 -18 -4 -25 0 -29 18 -5 18 -8 20 -12 7 -3 -9 -7 36 -8 100 -2 102 -6
124 -28 169 -36 75 -45 122 -51 268 -5 93 -2 165 10 252 9 67 16 135 16 152 0
17 4 31 8 31 9 0 42 -112 63 -215 18 -92 22 -49 10 115 -7 82 -9 171 -5 198 6
46 -11 194 -25 219 -4 7 -15 -46 -24 -119 -19 -141 -79 -402 -98 -424 -8 -10
-8 -18 -1 -27 6 -6 10 -39 10 -72 -1 -60 -16 -53 -17 8 -1 45 -49 224 -67 252
-9 14 -14 34 -11 44 3 13 -11 45 -39 88 -42 65 -50 83 -39 83 19 0 75 -37 104
-68 l33 -37 -37 70 c-21 39 -56 88 -79 110 -22 22 -58 60 -79 85 -21 25 -36
40 -33 34 10 -22 7 -123 -8 -219 -33 -208 -33 -199 -2 -193 14 3 29 1 32 -3
10 -17 20 -9 37 27 10 19 21 32 27 29 5 -3 18 0 29 7 40 25 44 -3 12 -87 -33
-85 -54 -115 -83 -115 -10 0 -36 -17 -59 -37 -37 -34 -40 -39 -34 -75 6 -34 3
-42 -20 -63 -38 -36 -56 -34 -35 5 14 26 -11 33 -66 19 -25 -7 -47 -10 -49 -7
-7 7 46 68 60 68 7 0 20 -7 29 -15 18 -18 30 -4 21 26 -4 12 -12 18 -21 15
-11 -4 -12 -1 -5 13 6 10 17 23 25 31 9 7 16 18 16 24 -1 6 -16 -6 -34 -26
-18 -21 -36 -38 -39 -38 -3 0 -7 15 -9 33 l-3 32 -28 -55 c-16 -30 -30 -73
-32 -95 -2 -29 -8 -40 -19 -39 -9 1 -14 -2 -11 -6 3 -5 1 -11 -4 -14 -19 -12
-43 45 -37 87 8 50 -15 91 -45 82 -31 -10 -32 17 -3 110 25 80 26 88 11 97
-10 5 -17 18 -17 29 0 19 2 25 33 87 9 17 12 32 7 32 -6 0 -10 21 -10 46 0 31
-7 56 -21 75 -20 28 -20 33 -7 87 7 31 18 56 24 55 6 -1 24 12 40 29 24 25 25
29 7 19 -39 -20 -45 -12 -21 32 12 23 23 43 23 44 3 8 85 11 90 3 21 -34 44
45 24 82 -11 21 -11 22 4 10 12 -10 21 -11 36 -3z m271 -29 c12 -8 10 -10 -10
-10 -14 0 -32 5 -40 10 -12 8 -10 10 10 10 14 0 32 -5 40 -10z m-340 -25 c0
-9 -6 -12 -15 -9 -8 4 -15 10 -15 15 0 5 7 9 15 9 8 0 15 -7 15 -15z m488 -3
c4 -13 -36 -16 -65 -5 -15 6 -13 9 12 14 37 8 48 6 53 -9z m102 -27 c14 5 20
2 20 -9 0 -9 7 -16 15 -16 8 0 15 -5 15 -11 0 -6 -9 -8 -22 -3 -40 12 -78 34
-78 45 0 8 5 8 15 -1 8 -6 23 -9 35 -5z m124 -120 c43 -28 93 -63 110 -79 17
-16 24 -23 15 -17 -12 8 -24 8 -44 1 -23 -9 -35 -6 -70 14 -37 22 -41 28 -37
55 3 22 -1 32 -17 40 -19 11 -21 9 -22 -21 0 -18 -3 -26 -6 -18 -3 8 -19 34
-35 57 l-28 42 27 -12 c16 -7 64 -35 107 -62z m84 40 c15 -14 34 -23 42 -20
19 6 75 -48 66 -63 -3 -5 2 -16 12 -23 16 -13 16 -12 2 6 -8 11 1 6 20 -11 19
-17 56 -43 83 -58 26 -15 47 -28 47 -29 0 -1 -16 -2 -36 -1 -23 1 -40 7 -46
18 -5 10 -42 38 -81 64 -60 39 -68 47 -49 50 19 3 21 6 11 18 -13 16 -46 19
-51 4 -2 -6 -37 8 -78 30 l-75 39 53 1 c43 0 58 -5 80 -25z m212 -215 c13 -8
13 -10 -2 -10 -9 0 -20 5 -23 10 -8 13 5 13 25 0z m87 -29 c-3 -14 -1 -34 5
-44 8 -16 7 -17 -9 -8 -10 5 -31 21 -47 34 l-29 23 34 16 c40 20 53 14 46 -21z
m-758 5 c9 -10 8 -15 -3 -19 -16 -7 -26 1 -26 20 0 17 14 17 29 -1z m820 -101
c7 3 12 -3 13 -17 2 -40 3 -42 20 -67 28 -39 13 -36 -26 6 -19 21 -36 46 -36
55 0 9 -3 25 -6 35 -5 17 -5 17 10 -1 8 -10 19 -15 25 -11z m1640 -86 c129
-11 212 -31 254 -61 47 -33 30 -38 -35 -9 -74 33 -104 40 -219 48 -63 4 -99 1
-141 -11 -85 -25 -99 -21 -58 14 40 33 42 34 199 19z m-1764 -78 c-16 -15
-178 -99 -205 -106 -14 -3 25 21 85 54 104 56 142 73 120 52z m2265 -106 c35
-36 62 -65 59 -65 -11 0 -87 65 -114 98 -46 55 -13 35 55 -33z m-88 8 c38 -25
66 -48 65 -50 -4 -3 -230 14 -307 23 l-45 6 105 33 c58 18 107 33 110 34 3 0
35 -20 72 -46z m-3372 -114 c0 -5 -4 -9 -10 -9 -5 0 -10 7 -10 16 0 8 5 12 10
9 6 -3 10 -10 10 -16z m20 -29 c0 -5 -4 -10 -10 -10 -5 0 -10 5 -10 10 0 6 5
10 10 10 6 0 10 -4 10 -10z m18 -65 c-3 -3 -9 2 -12 12 -6 14 -5 15 5 6 7 -7
10 -15 7 -18z m2498 -185 c4 -25 15 -92 24 -150 10 -58 17 -106 15 -108 -6 -6
-49 123 -76 228 -16 63 -32 124 -35 135 -3 13 7 6 30 -20 25 -28 37 -54 42
-85z m1181 -224 c1 -1 -5 -26 -12 -56 -12 -53 -18 -53 -28 0 -3 14 -9 35 -12
48 -7 21 -5 23 21 16 16 -4 30 -7 31 -8z m-2852 -423 c8 -18 15 -39 15 -48 0
-15 -248 -275 -262 -275 -3 0 0 26 7 59 14 60 102 224 116 215 4 -2 20 7 36
22 l28 26 -32 -22 c-18 -12 -33 -18 -33 -13 0 4 12 36 27 71 l26 62 29 -32
c16 -18 35 -47 43 -65z m71 -80 c-6 -6 -46 30 -46 41 0 5 11 -1 25 -14 14 -13
23 -25 21 -27z m2025 -141 c11 -35 19 -66 16 -68 -8 -8 -57 148 -56 176 1 21
2 19 10 -10 5 -19 19 -63 30 -98z m-1650 -350 c-7 -12 -11 25 -13 123 -4 194
-3 214 8 260 7 30 10 -11 12 -163 1 -121 -2 -210 -7 -220z m1835 328 c8 -40
13 -74 11 -76 -2 -2 -24 3 -49 12 -44 15 -46 16 -52 66 -8 57 -1 72 20 44 15
-21 16 -21 33 12 7 13 15 22 17 19 2 -2 11 -37 20 -77z m89 -36 c88 -109 129
-191 120 -236 -4 -16 -2 -34 4 -41 17 -21 73 -139 68 -143 -6 -6 -108 193
-137 266 -22 56 -46 90 -62 90 -5 0 -6 -5 -2 -11 3 -6 -5 -3 -20 6 -30 20 -32
28 -11 45 12 10 10 19 -16 66 -17 30 -29 54 -26 54 2 0 39 -43 82 -96z m535
-1 c0 -24 -18 -13 -24 15 -4 15 -9 36 -12 47 -2 11 4 4 15 -15 11 -19 20 -41
21 -47z m-2971 -209 c20 -62 51 -226 51 -267 0 -28 47 -58 115 -72 l50 -11 -3
-58 c-1 -31 -10 -74 -19 -94 l-17 -37 -4 37 c-2 29 -7 36 -19 31 -11 -4 -14
-2 -11 8 3 8 11 13 17 11 14 -3 14 4 1 28 -9 16 -14 18 -34 9 -20 -9 -32 -7
-64 11 -28 16 -39 28 -35 39 4 13 3 13 -5 2 -6 -8 -18 -11 -30 -7 -19 6 -19 9
-6 36 8 16 24 32 34 35 24 8 25 13 3 67 -15 37 -40 65 -102 116 -14 11 -10 12
27 10 23 -2 42 -1 42 3 0 20 -42 122 -69 167 l-31 53 23 8 c19 7 25 3 45 -28
12 -20 31 -63 41 -97z m2357 119 c-11 -36 -23 -112 -17 -111 3 1 26 -17 50
-40 l43 -41 -72 -118 c-40 -65 -93 -139 -118 -165 l-45 -47 6 -74 5 -74 -39
-38 -39 -38 0 27 c0 14 -5 26 -11 26 -6 0 -8 -7 -5 -16 3 -9 9 -27 12 -41 5
-18 9 -21 15 -11 7 10 9 9 9 -4 0 -9 3 -25 6 -35 6 -16 5 -16 -8 1 -15 19 -16
17 -16 -24 -1 -31 -6 -48 -19 -58 -44 -32 -133 -26 -133 8 0 27 29 100 52 129
10 13 18 35 18 50 0 40 21 97 68 190 l43 83 55 -7 c59 -7 63 -3 35 34 -18 24
-19 24 -46 7 -15 -10 -29 -15 -32 -12 -3 2 6 40 20 83 14 43 28 111 31 152 5
62 10 77 29 90 12 8 40 32 62 53 46 43 48 44 41 21z m224 -164 c0 -6 -4 -7
-10 -4 -5 3 -10 11 -10 16 0 6 5 7 10 4 6 -3 10 -11 10 -16z m-2691 -41 c13
-38 0 -26 -17 15 -7 16 -8 26 -3 23 5 -3 14 -20 20 -38z m2840 -55 c0 -21 -4
-56 -8 -78 l-7 -40 -38 58 c-21 32 -36 60 -34 62 6 6 72 34 81 35 4 0 7 -17 6
-37z m-2395 -38 c-2 -24 -8 -61 -13 -82 -8 -33 -9 -27 -10 45 -1 63 2 82 13
82 10 0 12 -12 10 -45z m-334 -34 c-1 -18 -33 -45 -55 -46 -21 -1 -25 4 -25
30 0 30 1 30 40 27 22 -2 40 -7 40 -11z m337 -263 c-2 -13 -4 -3 -4 22 0 25 2
35 4 23 2 -13 2 -33 0 -45z m2516 -18 l5 -75 -13 60 c-8 33 -12 68 -9 78 9 28
11 19 17 -63z m-2416 -107 c-2 -16 -4 -5 -4 22 0 28 2 40 4 28 2 -13 2 -35 0
-50z m-171 -133 c-25 -38 -48 -70 -52 -70 -3 0 0 10 8 23 45 68 78 126 79 138
1 9 3 7 6 -3 2 -10 -16 -49 -41 -88z m64 19 c-17 -14 -26 -17 -28 -9 -5 14 16
30 38 30 10 -1 7 -7 -10 -21z m2430 -29 c-7 -4 -9 -20 -5 -41 8 -43 -35 -188
-44 -150 -6 21 -7 20 -24 -16 -9 -22 -26 -48 -37 -58 -20 -18 -20 -18 -14 16
4 19 20 50 36 71 17 21 32 58 38 90 15 76 30 119 41 113 5 -4 10 0 10 7 1 7 3
5 6 -6 3 -10 0 -22 -7 -26z m-2470 -84 c0 -5 -65 -46 -74 -46 -13 0 -5 30 12
39 17 10 62 15 62 7z m2488 -233 c-10 -2 -26 -2 -35 0 -10 3 -2 5 17 5 19 0
27 -2 18 -5z"/>
<path d="M360 3460 c0 -18 59 -145 65 -139 2 3 -3 27 -11 54 -15 52 -53 112
-54 85z"/>
<path d="M552 2865 c-12 -15 -20 -30 -17 -33 9 -9 48 35 43 49 -3 8 -12 2 -26
-16z"/>
<path d="M1152 2492 c-45 -42 -82 -83 -82 -89 0 -28 -33 -93 -47 -93 -12 0
-14 -7 -8 -32 4 -18 12 -61 19 -95 l11 -63 19 46 c16 39 17 52 8 79 -21 56
-14 77 59 175 99 133 111 150 107 150 -2 -1 -40 -36 -86 -78z"/>
<path d="M1182 2256 c-32 -41 -38 -55 -27 -60 10 -3 24 10 42 42 14 26 31 53
36 60 6 8 6 12 -1 12 -5 0 -28 -24 -50 -54z"/>
<path d="M2561 2235 c0 -5 15 -39 34 -75 19 -36 34 -60 34 -55 0 6 -15 39 -34
75 -19 36 -34 61 -34 55z"/>
<path d="M1445 2080 c-3 -5 -1 -10 4 -10 6 0 11 5 11 10 0 6 -2 10 -4 10 -3 0
-8 -4 -11 -10z"/>
<path d="M3515 2080 c3 -5 11 -10 16 -10 6 0 7 5 4 10 -3 6 -11 10 -16 10 -6
0 -7 -4 -4 -10z"/>
<path d="M1168 3413 c7 -3 16 -2 19 1 4 3 -2 6 -13 5 -11 0 -14 -3 -6 -6z"/>
<path d="M1210 1000 c0 -5 4 -10 9 -10 6 0 13 5 16 10 3 6 -1 10 -9 10 -9 0
-16 -4 -16 -10z"/>
<path d="M3282 1195 c0 -16 2 -22 5 -12 2 9 2 23 0 30 -3 6 -5 -1 -5 -18z"/>
</g>
</svg>
